<svg width="297" height="210" xmlns="http://www.w3.org/2000/svg">
 <!-- Created with SVG-edit - http://svg-edit.googlecode.com/ -->
 <g>
  <title>Calque 1</title>
  <line fill="none" stroke="#000000" x1="150" y1="195" x2="100" y2="100" id="svg_1"/>
  <line fill="none" stroke="#000000" x1="150" y1="195" x2="200" y2="100" id="svg_2"/>
  <line fill="none" stroke="#000000" stroke-linejoin="null" stroke-linecap="null" x1="150" y1="195" x2="150" y2="70" id="svg_3"/>
  <line fill="none" stroke="#000000" stroke-linejoin="null" stroke-linecap="null" x1="150" y1="195" x2="125" y2="100" id="svg_4"/>
  <line fill="none" stroke="#000000" stroke-linejoin="null" stroke-linecap="null" x1="150" y1="195" x2="175" y2="100" id="svg_5"/>
  <line fill="none" stroke="#000000" stroke-linejoin="null" stroke-linecap="null" x1="150" y1="195" x2="75" y2="100" id="svg_6"/>
  <line fill="none" stroke="#000000" stroke-linejoin="null" stroke-linecap="null" x1="150" y1="195" x2="225" y2="100" id="svg_7"/>
  <line fill="none" stroke="#000000" stroke-linejoin="null" stroke-linecap="null" x1="75" y1="100" x2="225" y2="100" id="svg_8"/>
  <line id="svg_9" y2="70" x2="110" y1="100" x1="100" stroke-linecap="null" stroke-linejoin="null" stroke="#000000" fill="none"/>
  <line id="svg_10" y2="70" x2="190" y1="100" x1="200" stroke-linecap="null" stroke-linejoin="null" stroke="#000000" fill="none"/>
  <line id="svg_11" y2="100" x2="125" y1="70" x1="110" stroke-linecap="null" stroke-linejoin="null" stroke="#000000" fill="none"/>
  <line id="svg_12" y2="70" x2="150" y1="100" x1="125" stroke-linecap="null" stroke-linejoin="null" stroke="#000000" fill="none"/>
  <line id="svg_13" y2="70" x2="190" y1="100" x1="175" stroke-linecap="null" stroke-linejoin="null" stroke="#000000" fill="none"/>
  <line id="svg_14" y2="70" x2="150" y1="100" x1="175" stroke-linecap="null" stroke-linejoin="null" stroke="#000000" fill="none"/>
  <line id="svg_15" y2="70" x2="110" y1="100" x1="75" stroke-linecap="null" stroke-linejoin="null" stroke="#000000" fill="none"/>
  <line id="svg_16" y2="70" x2="190" y1="100" x1="225" stroke-linecap="null" stroke-linejoin="null" stroke="#000000" fill="none"/>
  <line id="svg_17" y2="70" x2="190" y1="70" x1="110" stroke-linecap="null" stroke-linejoin="null" stroke="#000000" fill="none"/>
  <circle id="svg_19" r="77" cy="118" cx="150" stroke-linecap="null" stroke-linejoin="null" stroke="#000000" fill="none"/>
 </g>
</svg>