<svg width="297" height="210" xmlns="http://www.w3.org/2000/svg">
 <!-- Created with SVG-edit - http://svg-edit.googlecode.com/ -->
 <g>
  <title>Layer 1</title>
  <line fill="none" stroke="#000000" stroke-width="5" x1="10" y1="40" x2="10" y2="170" id="svg_1"/>
  <line fill="none" stroke="#000000" stroke-width="5" stroke-linejoin="null" stroke-linecap="null" x1="10" y1="40" x2="20" y2="40" id="svg_2"/>
  <line fill="none" stroke="#000000" stroke-width="5" stroke-linejoin="null" stroke-linecap="null" x1="10" y1="170" x2="20" y2="170" id="svg_3"/>
  <line fill="none" stroke="#000000" stroke-width="5" stroke-linejoin="null" stroke-linecap="null" x1="20" y1="40" x2="20" y2="170" id="svg_4"/>
  <line id="svg_5" y2="170" x2="30" y1="40" x1="30" stroke-linecap="null" stroke-linejoin="null" stroke-width="5" stroke="#000000" fill="none"/>
  <line id="svg_6" y2="40" x2="40" y1="40" x1="30" stroke-linecap="null" stroke-linejoin="null" stroke-width="5" stroke="#000000" fill="none"/>
  <line fill="none" stroke="#000000" stroke-width="5" stroke-linejoin="null" stroke-linecap="null" x1="30" y1="170" x2="40" y2="170" id="svg_8"/>
  <line fill="none" stroke="#000000" stroke-width="5" stroke-linejoin="null" stroke-linecap="null" x1="40" y1="40" x2="55" y2="100" id="svg_9"/>
  <line fill="none" stroke="#000000" stroke-width="5" stroke-linejoin="null" stroke-linecap="null" x1="55" y1="100.625" x2="70" y2="40" id="svg_10"/>
  <line fill="none" stroke="#000000" stroke-width="5" stroke-linejoin="null" stroke-linecap="null" x1="70" y1="40" x2="80" y2="40" id="svg_11"/>
  <line fill="none" stroke="#000000" stroke-width="5" stroke-linejoin="null" stroke-linecap="null" x1="80" y1="40" x2="80" y2="170" id="svg_12"/>
  <line fill="none" stroke="#000000" stroke-width="5" stroke-linejoin="null" stroke-linecap="null" x1="80" y1="170" x2="70" y2="170" id="svg_13"/>
  <line fill="none" stroke="#000000" stroke-width="5" stroke-linejoin="null" stroke-linecap="null" x1="40" y1="170" x2="40" y2="90" id="svg_14"/>
  <line fill="none" stroke="#000000" stroke-width="5" stroke-linejoin="null" stroke-linecap="null" x1="70" y1="170" x2="70" y2="90" id="svg_15"/>
  <line id="svg_16" y2="120" x2="50" y1="90" x1="40" stroke-linecap="null" stroke-linejoin="null" stroke-width="5" stroke="#000000" fill="none"/>
  <line id="svg_17" y2="120" x2="60" y1="90" x1="70" stroke-linecap="null" stroke-linejoin="null" stroke-width="5" stroke="#000000" fill="none"/>
  <line fill="none" stroke="#000000" stroke-width="5" stroke-linejoin="null" stroke-linecap="null" x1="50" y1="120" x2="60" y2="120" id="svg_18"/>
  <line fill="none" stroke="#000000" stroke-width="5" stroke-linejoin="null" stroke-linecap="null" x1="90" y1="40" x2="90" y2="170" id="svg_19"/>
  <line fill="none" stroke="#000000" stroke-width="5" stroke-linejoin="null" stroke-linecap="null" x1="90" y1="40" x2="130" y2="40" id="svg_20"/>
  <line fill="none" stroke="#000000" stroke-width="5" stroke-linejoin="null" stroke-linecap="null" x1="130" y1="40" x2="130" y2="50" id="svg_21"/>
  <line fill="none" stroke="#000000" stroke-width="5" stroke-linejoin="null" stroke-linecap="null" x1="130" y1="50" x2="100" y2="50" id="svg_22"/>
  <line fill="none" stroke="#000000" stroke-width="5" stroke-linejoin="null" stroke-linecap="null" x1="100" y1="50" x2="100" y2="95" id="svg_23"/>
  <line fill="none" stroke="#000000" stroke-width="5" stroke-linejoin="null" stroke-linecap="null" x1="100" y1="95" x2="120" y2="95" id="svg_24"/>
  <line fill="none" stroke="#000000" stroke-width="5" stroke-linejoin="null" stroke-linecap="null" x1="120" y1="95" x2="120" y2="105" id="svg_25"/>
  <line fill="none" stroke="#000000" stroke-width="5" stroke-linejoin="null" stroke-linecap="null" x1="120" y1="105" x2="100" y2="105" id="svg_26"/>
  <line fill="none" stroke="#000000" stroke-width="5" stroke-linejoin="null" stroke-linecap="null" x1="100" y1="105" x2="100" y2="160" id="svg_27"/>
  <line fill="none" stroke="#000000" stroke-width="5" stroke-linejoin="null" stroke-linecap="null" x1="100" y1="160" x2="130" y2="160" id="svg_28"/>
  <line fill="none" stroke="#000000" stroke-width="5" stroke-linejoin="null" stroke-linecap="null" x1="130" y1="160" x2="130" y2="170" id="svg_29"/>
  <line fill="none" stroke="#000000" stroke-width="5" stroke-linejoin="null" stroke-linecap="null" x1="90" y1="170" x2="130" y2="170" id="svg_30"/>
  <line id="svg_31" y2="40" x2="140" y1="170" x1="140" stroke-linecap="null" stroke-linejoin="null" stroke-width="5" stroke="#000000" fill="none"/>
  <line id="svg_32" y2="40" x2="180" y1="40" x1="140" stroke-linecap="null" stroke-linejoin="null" stroke-width="5" stroke="#000000" fill="none"/>
  <line id="svg_33" y2="70" x2="190" y1="40" x1="180" stroke-linecap="null" stroke-linejoin="null" stroke-width="5" stroke="#000000" fill="none"/>
  <line id="svg_34" y2="100" x2="180" y1="70" x1="190" stroke-linecap="null" stroke-linejoin="null" stroke-width="5" stroke="#000000" fill="none"/>
  <line id="svg_35" y2="100" x2="160" y1="100" x1="180" stroke-linecap="null" stroke-linejoin="null" stroke-width="5" stroke="#000000" fill="none"/>
  <line id="svg_36" y2="170" x2="185" y1="100" x1="160" stroke-linecap="null" stroke-linejoin="null" stroke-width="5" stroke="#000000" fill="none"/>
  <line fill="none" stroke="#000000" stroke-width="5" stroke-linejoin="null" stroke-linecap="null" x1="140" y1="170" x2="150" y2="170" id="svg_37"/>
  <line fill="none" stroke="#000000" stroke-width="5" stroke-linejoin="null" stroke-linecap="null" x1="185" y1="170" x2="175" y2="170" id="svg_38"/>
  <line fill="none" stroke="#000000" stroke-width="5" stroke-linejoin="null" stroke-linecap="null" x1="150" y1="170" x2="150" y2="100" id="svg_39"/>
  <line fill="none" stroke="#000000" stroke-width="5" stroke-linejoin="null" stroke-linecap="null" x1="150" y1="100" x2="175" y2="170" id="svg_40"/>
  <line fill="none" stroke="#000000" stroke-width="5" stroke-linejoin="null" stroke-linecap="null" x1="150" y1="50" x2="150" y2="90" id="svg_42"/>
  <line fill="none" stroke="#000000" stroke-width="5" stroke-linejoin="null" stroke-linecap="null" x1="150" y1="50" x2="172" y2="50" id="svg_43"/>
  <line fill="none" stroke="#000000" stroke-width="5" stroke-linejoin="null" stroke-linecap="null" x1="172" y1="50" x2="178" y2="70" id="svg_44"/>
  <line fill="none" stroke="#000000" stroke-width="5" stroke-linejoin="null" stroke-linecap="null" x1="150" y1="90" x2="172" y2="90" id="svg_45"/>
  <line id="svg_46" y2="90" x2="172" y1="70" x1="178" stroke-linecap="null" stroke-linejoin="null" stroke-width="5" stroke="#000000" fill="none"/>
  <line id="svg_47" y2="170" x2="200" y1="40" x1="200" stroke-linecap="null" stroke-linejoin="null" stroke-width="5" stroke="#000000" fill="none"/>
  <line id="svg_48" y2="170" x2="210" y1="170" x1="200" stroke-linecap="null" stroke-linejoin="null" stroke-width="5" stroke="#000000" fill="none"/>
  <line id="svg_49" y2="40" x2="210" y1="170" x1="210" stroke-linecap="null" stroke-linejoin="null" stroke-width="5" stroke="#000000" fill="none"/>
  <line id="svg_50" y2="40" x2="200" y1="40" x1="210" stroke-linecap="null" stroke-linejoin="null" stroke-width="5" stroke="#000000" fill="none"/>
  <line id="svg_51" y2="40.625" x2="223.62498" y1="170.625" x1="223.62498" stroke-linecap="null" stroke-linejoin="null" stroke-width="5" stroke="#000000" fill="none"/>
  <line id="svg_52" y2="40.625" x2="263.62498" y1="40.625" x1="223.62498" stroke-linecap="null" stroke-linejoin="null" stroke-width="5" stroke="#000000" fill="none"/>
  <line id="svg_53" y2="70.625" x2="273.62498" y1="40.625" x1="263.62498" stroke-linecap="null" stroke-linejoin="null" stroke-width="5" stroke="#000000" fill="none"/>
  <line id="svg_54" y2="100.625" x2="263.62498" y1="70.625" x1="273.62498" stroke-linecap="null" stroke-linejoin="null" stroke-width="5" stroke="#000000" fill="none"/>
  <line id="svg_55" y2="100.625" x2="243.62498" y1="100.625" x1="263.62498" stroke-linecap="null" stroke-linejoin="null" stroke-width="5" stroke="#000000" fill="none"/>
  <line id="svg_56" y2="170.625" x2="268.62498" y1="100.625" x1="243.62498" stroke-linecap="null" stroke-linejoin="null" stroke-width="5" stroke="#000000" fill="none"/>
  <line id="svg_57" fill="none" stroke="#000000" stroke-width="5" stroke-linejoin="null" stroke-linecap="null" x1="223.62498" y1="170.625" x2="233.62498" y2="170.625"/>
  <line id="svg_58" fill="none" stroke="#000000" stroke-width="5" stroke-linejoin="null" stroke-linecap="null" x1="268.62498" y1="170.625" x2="258.62498" y2="170.625"/>
  <line id="svg_59" fill="none" stroke="#000000" stroke-width="5" stroke-linejoin="null" stroke-linecap="null" x1="233.62498" y1="170.625" x2="233.62498" y2="100.625"/>
  <line id="svg_60" fill="none" stroke="#000000" stroke-width="5" stroke-linejoin="null" stroke-linecap="null" x1="233.62498" y1="100.625" x2="258.62498" y2="170.625"/>
  <line id="svg_61" fill="none" stroke="#000000" stroke-width="5" stroke-linejoin="null" stroke-linecap="null" x1="233.62498" y1="50.625" x2="233.62498" y2="90.625"/>
  <line id="svg_62" fill="none" stroke="#000000" stroke-width="5" stroke-linejoin="null" stroke-linecap="null" x1="233.62498" y1="50.625" x2="255.62498" y2="50.625"/>
  <line id="svg_63" fill="none" stroke="#000000" stroke-width="5" stroke-linejoin="null" stroke-linecap="null" x1="255.62498" y1="50.625" x2="261.62498" y2="70.625"/>
  <line id="svg_64" fill="none" stroke="#000000" stroke-width="5" stroke-linejoin="null" stroke-linecap="null" x1="233.62498" y1="90.625" x2="255.62498" y2="90.625"/>
  <line id="svg_65" y2="90.625" x2="255.62498" y1="70.625" x1="261.62498" stroke-linecap="null" stroke-linejoin="null" stroke-width="5" stroke="#000000" fill="none"/>
 </g>
</svg>